<svg width="250" height="250" viewBox="0 0 250 250" fill="none" xmlns="http://www.w3.org/2000/svg">
<g filter="url(#filter0_i_31_16)">
<rect width="250" height="250" rx="10" fill="#2F322B"/>
</g>
<path d="M127.225 199.46C118.888 199.46 110.962 198.025 103.445 195.155C95.9284 192.285 89.2317 188.048 83.3551 182.445C77.6151 176.705 73.0367 169.598 69.6201 161.125C66.3401 152.515 64.7001 142.538 64.7001 131.195C64.7001 116.298 67.5701 103.657 73.3101 93.27C79.1867 82.7467 86.9767 74.7517 96.6801 69.285C106.383 63.8183 117.248 61.085 129.275 61.085C137.748 61.085 145.47 62.8617 152.44 66.415C159.41 69.8317 165.15 73.795 169.66 78.305L151.62 98.395C148.613 95.525 145.265 93.3383 141.575 91.835C138.022 90.195 133.922 89.375 129.275 89.375C123.398 89.375 118.068 91.015 113.285 94.295C108.638 97.4383 104.948 102.085 102.215 108.235C99.6184 114.248 98.3201 121.492 98.3201 129.965C98.3201 138.712 99.6184 146.16 102.215 152.31C104.948 158.46 108.775 163.175 113.695 166.455C118.615 169.598 124.287 171.17 130.71 171.17C135.22 171.17 139.388 170.145 143.215 168.095C147.042 165.908 150.458 163.243 153.465 160.1L171.505 179.78C166.038 186.34 159.547 191.26 152.03 194.54C144.513 197.82 136.245 199.46 127.225 199.46Z" fill="#F4D689"/>
<defs>
<filter id="filter0_i_31_16" x="0" y="0" width="250" height="250" filterUnits="userSpaceOnUse" color-interpolation-filters="sRGB">
<feFlood flood-opacity="0" result="BackgroundImageFix"/>
<feBlend mode="normal" in="SourceGraphic" in2="BackgroundImageFix" result="shape"/>
<feColorMatrix in="SourceAlpha" type="matrix" values="0 0 0 0 0 0 0 0 0 0 0 0 0 0 0 0 0 0 127 0" result="hardAlpha"/>
<feOffset/>
<feGaussianBlur stdDeviation="29.5"/>
<feComposite in2="hardAlpha" operator="arithmetic" k2="-1" k3="1"/>
<feColorMatrix type="matrix" values="0 0 0 0 0.956863 0 0 0 0 0.839216 0 0 0 0 0.537255 0 0 0 0.1 0"/>
<feBlend mode="normal" in2="shape" result="effect1_innerShadow_31_16"/>
</filter>
</defs>
</svg>
