<svg width="51" height="51" viewBox="0 0 51 51" fill="none" xmlns="http://www.w3.org/2000/svg">
<path d="M0.561768 3.58379C0.561768 1.60565 2.21784 0 4.2593 0H46.8942C48.9365 0 50.5918 1.60565 50.5918 3.58379V46.4468C50.5918 48.4255 48.9365 50.03 46.8942 50.03H4.2593C2.21803 50.03 0.561768 48.4257 0.561768 46.4474V3.5832V3.58379Z" fill="#006699"/>
<path d="M15.765 41.8686V19.345H8.27844V41.8686H15.7657H15.765ZM12.0233 16.2703C14.6334 16.2703 16.2584 14.5407 16.2584 12.3793C16.2096 10.1686 14.6334 8.4873 12.0729 8.4873C9.51062 8.4873 7.83716 10.1686 7.83716 12.3791C7.83716 14.5405 9.46157 16.2701 11.9742 16.2701H12.0227L12.0233 16.2703ZM19.9088 41.8686H27.3948V29.2918C27.3948 28.6195 27.4436 27.9455 27.6414 27.4653C28.1824 26.1198 29.4142 24.7269 31.4828 24.7269C34.191 24.7269 35.2751 26.7922 35.2751 29.8204V41.8686H42.7608V28.9543C42.7608 22.0363 39.068 18.8169 34.1426 18.8169C30.1044 18.8169 28.3309 21.074 27.3455 22.6112H27.3954V19.3458H19.9092C20.007 21.4588 19.9087 41.8694 19.9087 41.8694L19.9088 41.8686Z" fill="white"/>
</svg>
